<?xml version="1.0" standalone="no"?>
<!DOCTYPE svg PUBLIC "-//W3C//DTD SVG 20010904//EN"
 "http://www.w3.org/TR/2001/REC-SVG-20010904/DTD/svg10.dtd">
<svg version="1.0" xmlns="http://www.w3.org/2000/svg"
 width="300.000000pt" height="82.000000pt" viewBox="0 0 300.000000 82.000000"
 preserveAspectRatio="xMidYMid meet">
<metadata>
Created by potrace 1.10, written by Peter Selinger 2001-2011
</metadata>
<g transform="translate(0.000000,82.000000) scale(0.100000,-0.100000)"
fill="#000000" stroke="none">
<path d="M4 410 c0 -228 2 -362 3 -297 l4 117 1027 0 c1068 -1 1154 -3 1392
-45 128 -22 333 -76 457 -119 105 -37 129 -43 103 -26 -57 37 -418 135 -635
172 -128 22 -149 22 -1237 25 -982 3 -1108 6 -1108 19 0 13 124 15 1123 11
1184 -4 1170 -4 1472 -52 106 -17 308 -58 363 -74 19 -6 32 -6 32 0 0 5 -3 9
-8 9 -4 0 -57 11 -117 25 -133 30 -240 49 -434 77 -140 20 -192 21 -1288 25
-1008 4 -1143 6 -1143 19 0 13 134 15 1168 11 996 -3 1190 -6 1327 -20 140
-15 360 -44 465 -62 24 -4 30 -3 20 3 -16 10 -239 44 -405 62 -250 26 -440 30
-1477 30 -967 0 -1098 2 -1098 15 0 9 9 15 23 15 12 0 519 0 1126 0 1148 -1
1271 -4 1771 -46 41 -4 73 -4 70 -1 -8 9 -328 37 -538 47 -100 5 -465 10 -810
10 -1112 3 -1642 11 -1642 27 0 11 252 13 1498 16 l1497 2 -1497 3 c-1324 2
-1498 4 -1498 17 0 13 124 15 1058 15 789 0 1129 4 1342 15 278 14 578 40 588
50 8 8 -20 6 -183 -10 -302 -30 -543 -36 -1662 -42 -1044 -5 -1143 -4 -1143
10 0 15 102 17 1128 20 741 2 1170 8 1252 15 308 29 588 68 605 84 7 7 3 8
-10 5 -109 -30 -551 -75 -865 -88 -370 -15 -2110 -8 -2110 9 0 9 198 12 958
12 1005 0 1237 6 1495 40 210 27 546 95 533 107 -2 3 -53 -6 -113 -20 -149
-35 -388 -74 -573 -93 -131 -13 -322 -16 -1228 -17 -852 -2 -1072 1 -1072 11
0 9 191 12 923 12 1013 0 1240 7 1464 45 222 38 566 134 598 167 7 8 4 9 -10
3 -271 -102 -609 -176 -875 -191 -58 -3 -554 -6 -1102 -7 l-997 -2 -4 125 c-1
69 -3 -62 -3 -290z"/>
</g>
</svg>
