<?xml version="1.0" standalone="no"?>
<!DOCTYPE svg PUBLIC "-//W3C//DTD SVG 20010904//EN"
 "http://www.w3.org/TR/2001/REC-SVG-20010904/DTD/svg10.dtd">
<svg version="1.0" xmlns="http://www.w3.org/2000/svg"
 width="300.000000pt" height="82.000000pt" viewBox="0 0 300.000000 82.000000"
 preserveAspectRatio="xMidYMid meet">
<metadata>
Created by potrace 1.10, written by Peter Selinger 2001-2011
</metadata>
<g transform="translate(0.000000,82.000000) scale(0.100000,-0.100000)"
fill="#000000" stroke="none">
<path d="M4 410 c0 -228 2 -362 3 -297 l4 117 1023 0 c852 0 1048 -3 1172 -15
238 -25 471 -76 685 -151 114 -40 147 -40 42 0 -159 60 -388 117 -583 146
-236 34 -489 41 -1438 38 l-902 -3 0 97 0 96 1193 5 c655 3 1224 8 1262 11 39
4 158 13 265 21 209 16 274 24 267 32 -3 2 -54 0 -114 -6 -115 -11 -172 -16
-408 -32 -82 -6 -671 -13 -1307 -16 l-1158 -5 -3 188 c-1 104 -3 2 -3 -226z"/>
<path d="M2890 743 c-126 -46 -327 -98 -475 -122 -248 -41 -275 -42 -1383 -45
-551 -2 -1005 -6 -1009 -10 -9 -9 1878 -5 2062 5 179 9 370 38 559 86 143 36
334 98 351 114 15 14 -3 10 -105 -28z"/>
<path d="M2973 670 c-56 -23 -426 -91 -573 -105 -36 -4 -76 -9 -90 -12 -65
-13 -733 -20 -1472 -16 -608 3 -818 1 -818 -7 0 -9 279 -11 1093 -7 1036 4
1101 5 1262 25 293 37 625 102 625 123 0 5 -1 9 -2 8 -2 0 -13 -4 -25 -9z"/>
<path d="M2975 585 c-39 -15 -432 -62 -588 -71 -56 -3 -109 -8 -117 -12 -8 -3
-517 -9 -1130 -12 l-1115 -6 1125 1 c619 1 1152 5 1185 9 33 4 130 13 215 22
202 19 450 55 450 66 0 8 -8 9 -25 3z"/>
<path d="M763 403 c411 -2 1083 -2 1495 0 411 1 74 2 -748 2 -822 0 -1159 -1
-747 -2z"/>
<path d="M40 360 c-8 -5 509 -10 1221 -13 1167 -3 1247 -5 1469 -25 129 -12
243 -24 253 -26 9 -2 17 0 17 5 0 5 -8 9 -17 9 -10 0 -56 4 -103 9 -122 13
-201 19 -410 31 -237 12 -2411 22 -2430 10z"/>
<path d="M40 319 c0 -5 453 -9 1073 -9 1196 0 1352 -6 1756 -71 68 -11 126
-17 128 -15 20 20 -468 78 -792 94 -221 12 -2165 12 -2165 1z"/>
<path d="M495 280 c-367 -4 -239 -6 545 -8 1046 -2 1216 -7 1464 -43 136 -19
396 -69 464 -88 17 -5 32 -6 32 -2 0 16 -340 84 -575 115 -192 26 -977 36
-1930 26z"/>
</g>
</svg>
